*
*
G04 PADS VX.2.4 Build Number: 11282995 generated Gerber (RS-274-X) file*
G04 PC Version=2.1*
*
%IN "adj_power_supply.pcb"*%
*
%MOIN*%
*
%FSDAX24Y24*%
*
*
*
*
G04 PC Standard Apertures*
*
*
G04 Thermal Relief Aperture macro.*
%AMTER*
1,1,$1,0,0*
1,0,$1-$2,0,0*
21,0,$3,$4,0,0,45*
21,0,$3,$4,0,0,135*
%
*
*
G04 Annular Aperture macro.*
%AMANN*
1,1,$1,0,0*
1,0,$2,0,0*
%
*
*
G04 Odd Aperture macro.*
%AMODD*
1,1,$1,0,0*
1,0,$1-0.005,0,0*
%
*
*
G04 PC Custom Aperture Macros*
*
*
*
*
*
*
G04 PC Aperture Table*
*
%ADD010C,0.00591*%
%ADD011R,0.07087X0.17717*%
%ADD012R,0.06803X0.05846*%
%ADD013R,0.05551X0.05315*%
%ADD014R,0.05315X0.05551*%
%ADD015R,0.12205X0.11024*%
%ADD016R,0.0315X0.0315*%
%ADD017O,0.31496X0.3937*%
%ADD018C,0.07874*%
%ADD020R,0.08362X0.13465*%
%ADD021C,0.06*%
%ADD022R,0.065X0.125*%
%ADD023R,0.02756X0.05118*%
%ADD024R,0.05118X0.02756*%
%ADD025R,0.12598X0.04528*%
%ADD026R,0.32X0.43*%
%ADD027O,0.0748X0.02756*%
%ADD028O,0.1378X0.07874*%
%ADD029R,0.04921X0.02756*%
%ADD030O,0.07677X0.02236*%
%ADD031C,0.15748*%
%ADD036C,0.01*%
*
*
*
*
G04 PC Circuitry*
G04 Layer Name adj_power_supply.pcb - circuitry*
%LPD*%
*
*
G04 PC Custom Flashes*
G04 Layer Name adj_power_supply.pcb - flashes*
%LPD*%
*
*
G04 PC Circuitry*
G04 Layer Name adj_power_supply.pcb - circuitry*
%LPD*%
*
G54D10*
G54D11*
G01X180700Y137783D03*
X180700Y135127D03*
X163795Y129535D03*
X163795Y126879D03*
G54D12*
X183248Y135799D03*
X183248Y137053D03*
X161043Y127641D03*
X161043Y128895D03*
G54D13*
X177940Y133074D03*
X177940Y132287D03*
X174326Y129519D03*
X174326Y128732D03*
G54D14*
X181937Y132689D03*
X181149Y132689D03*
G54D15*
X166854Y126586D03*
X166854Y123791D03*
G54D16*
X170897Y136334D03*
X171566Y136334D03*
X180137Y126291D03*
X179468Y126291D03*
X181850Y126307D03*
X181181Y126307D03*
G54D17*
X165059Y120157D03*
X159133Y120157D03*
X187354Y120157D03*
X181429Y120157D03*
G54D18*
X164696Y136114D03*
X165716Y136114D03*
G54D20*
X168590Y126582D03*
X172510Y126582D03*
G54D21*
X175106Y135555D03*
X175106Y136555D03*
X175106Y137555D03*
X177480Y135535D03*
X177480Y136535D03*
X177480Y137535D03*
G54D22*
X178479Y123937D03*
X175929Y123937D03*
G54D23*
X169110Y136303D03*
X169858Y136303D03*
X177988Y130830D03*
X178736Y130830D03*
X176145Y126492D03*
X176893Y126492D03*
G54D24*
X179492Y128468D03*
X179492Y129216D03*
X180035Y130822D03*
X180035Y131570D03*
X174295Y127748D03*
X174295Y127000D03*
X181846Y128102D03*
X181846Y127354D03*
G54D25*
X167082Y133858D03*
X167082Y133188D03*
X167082Y132518D03*
X167082Y131848D03*
X167082Y131178D03*
G54D26*
X170986Y132518D03*
G54D27*
X176689Y132551D03*
X176689Y133142D03*
X176689Y133733D03*
G54D28*
X175704Y133142D03*
G54D29*
X181165Y131566D03*
X181165Y130818D03*
X181913Y131192D03*
G54D30*
X175858Y129224D03*
X175858Y128724D03*
X175858Y128224D03*
X175858Y127724D03*
X177988Y127724D03*
X177988Y128224D03*
X177988Y128724D03*
X177988Y129224D03*
G54D31*
X173228Y122047D03*
X159448Y137440D03*
X187007Y137440D03*
G54D36*
X178154Y123112D02*
X179004Y123112D01*
X179004Y123112D02*
X179004Y124762D01*
X179004Y124762D02*
X178154Y124762D01*
X176254Y123112D02*
X175404Y123112D01*
X175404Y123112D02*
X175404Y124762D01*
X175404Y124762D02*
X176254Y124762D01*
X179623Y136410D02*
X179574Y136392D01*
X179574Y136392D02*
X179525Y136357D01*
X179500Y136321*
X179500Y136321D02*
X179500Y136249D01*
X179500Y136249D02*
X179525Y136213D01*
X179525Y136213D02*
X179574Y136178D01*
X179574Y136178D02*
X179623Y136160D01*
X179623Y136160D02*
X179697Y136142D01*
X179697Y136142D02*
X179820Y136142D01*
X179820Y136142D02*
X179894Y136160D01*
X179943Y136178*
X179943Y136178D02*
X179992Y136213D01*
X179992Y136213D02*
X180017Y136249D01*
X180017Y136249D02*
X180017Y136321D01*
X179992Y136357*
X179992Y136357D02*
X179943Y136392D01*
X179943Y136392D02*
X179894Y136410D01*
X179599Y136571D02*
X179574Y136607D01*
X179574Y136607D02*
X179500Y136661D01*
X179500Y136661D02*
X180017Y136661D01*
X183110Y134618D02*
X183061Y134600D01*
X183011Y134564*
X183011Y134564D02*
X182987Y134528D01*
X182987Y134528D02*
X182987Y134457D01*
X183011Y134421*
X183011Y134421D02*
X183061Y134385D01*
X183061Y134385D02*
X183110Y134367D01*
X183110Y134367D02*
X183184Y134349D01*
X183184Y134349D02*
X183307Y134349D01*
X183307Y134349D02*
X183381Y134367D01*
X183381Y134367D02*
X183430Y134385D01*
X183430Y134385D02*
X183479Y134421D01*
X183504Y134457*
X183504Y134528*
X183504Y134528D02*
X183479Y134564D01*
X183479Y134564D02*
X183430Y134600D01*
X183381Y134618*
X183110Y134797D02*
X183085Y134797D01*
X183085Y134797D02*
X183036Y134815D01*
X183036Y134815D02*
X183011Y134833D01*
X183011Y134833D02*
X182987Y134868D01*
X182987Y134868D02*
X182987Y134940D01*
X183011Y134976*
X183011Y134976D02*
X183036Y134994D01*
X183036Y134994D02*
X183085Y135012D01*
X183085Y135012D02*
X183134Y135012D01*
X183134Y135012D02*
X183184Y134994D01*
X183258Y134958*
X183504Y134779*
X183504Y135029*
X162680Y128032D02*
X162631Y128014D01*
X162631Y128014D02*
X162581Y127978D01*
X162581Y127978D02*
X162557Y127943D01*
X162557Y127871*
X162557Y127871D02*
X162581Y127835D01*
X162581Y127835D02*
X162631Y127800D01*
X162680Y127782*
X162754Y127764*
X162877Y127764*
X162950Y127782*
X162950Y127782D02*
X163000Y127800D01*
X163049Y127835*
X163049Y127835D02*
X163073Y127871D01*
X163073Y127871D02*
X163073Y127943D01*
X163073Y127943D02*
X163049Y127978D01*
X163049Y127978D02*
X163000Y128014D01*
X163000Y128014D02*
X162950Y128032D01*
X162557Y128229D02*
X162557Y128426D01*
X162754Y128318*
X162754Y128318D02*
X162754Y128372D01*
X162754Y128372D02*
X162778Y128408D01*
X162778Y128408D02*
X162803Y128426D01*
X162877Y128444*
X162926Y128444*
X163000Y128426*
X163049Y128390*
X163049Y128390D02*
X163073Y128336D01*
X163073Y128336D02*
X163073Y128283D01*
X163073Y128283D02*
X163049Y128229D01*
X163024Y128211*
X163024Y128211D02*
X162975Y128193D01*
X160876Y126394D02*
X160827Y126376D01*
X160827Y126376D02*
X160777Y126341D01*
X160777Y126341D02*
X160753Y126305D01*
X160753Y126233*
X160753Y126233D02*
X160777Y126197D01*
X160777Y126197D02*
X160827Y126162D01*
X160876Y126144*
X160950Y126126*
X161073Y126126*
X161147Y126144*
X161196Y126162*
X161245Y126197*
X161245Y126197D02*
X161270Y126233D01*
X161270Y126233D02*
X161270Y126305D01*
X161245Y126341*
X161196Y126376*
X161196Y126376D02*
X161147Y126394D01*
X160753Y126734D02*
X161097Y126555D01*
X161097Y126555D02*
X161097Y126824D01*
X160753Y126734D02*
X161270Y126734D01*
X178097Y134151D02*
X178146Y134169D01*
X178195Y134205*
X178220Y134240*
X178220Y134240D02*
X178220Y134312D01*
X178195Y134348*
X178146Y134383*
X178146Y134383D02*
X178097Y134401D01*
X178097Y134401D02*
X178023Y134419D01*
X178023Y134419D02*
X177900Y134419D01*
X177900Y134419D02*
X177826Y134401D01*
X177826Y134401D02*
X177777Y134383D01*
X177777Y134383D02*
X177727Y134348D01*
X177727Y134348D02*
X177703Y134312D01*
X177703Y134240*
X177703Y134240D02*
X177727Y134205D01*
X177727Y134205D02*
X177777Y134169D01*
X177826Y134151*
X178220Y133757D02*
X178220Y133936D01*
X178220Y133936D02*
X177998Y133954D01*
X177998Y133954D02*
X178023Y133936D01*
X178023Y133936D02*
X178047Y133882D01*
X178047Y133882D02*
X178047Y133829D01*
X178047Y133829D02*
X178023Y133775D01*
X178023Y133775D02*
X177973Y133739D01*
X177973Y133739D02*
X177900Y133721D01*
X177900Y133721D02*
X177850Y133739D01*
X177850Y133739D02*
X177777Y133757D01*
X177777Y133757D02*
X177727Y133793D01*
X177727Y133793D02*
X177703Y133847D01*
X177703Y133900*
X177703Y133900D02*
X177727Y133954D01*
X177727Y133954D02*
X177752Y133972D01*
X177801Y133990*
X174485Y130551D02*
X174534Y130569D01*
X174583Y130604*
X174583Y130604D02*
X174608Y130640D01*
X174608Y130640D02*
X174608Y130712D01*
X174583Y130748*
X174534Y130783*
X174534Y130783D02*
X174485Y130801D01*
X174485Y130801D02*
X174411Y130819D01*
X174411Y130819D02*
X174288Y130819D01*
X174288Y130819D02*
X174214Y130801D01*
X174214Y130801D02*
X174165Y130783D01*
X174165Y130783D02*
X174115Y130748D01*
X174115Y130748D02*
X174091Y130712D01*
X174091Y130640*
X174091Y130640D02*
X174115Y130604D01*
X174115Y130604D02*
X174165Y130569D01*
X174214Y130551*
X174534Y130175D02*
X174583Y130193D01*
X174608Y130247*
X174608Y130282*
X174608Y130282D02*
X174583Y130336D01*
X174509Y130372*
X174509Y130372D02*
X174386Y130390D01*
X174386Y130390D02*
X174263Y130390D01*
X174263Y130390D02*
X174165Y130372D01*
X174115Y130336*
X174115Y130336D02*
X174091Y130282D01*
X174091Y130282D02*
X174091Y130264D01*
X174091Y130264D02*
X174115Y130211D01*
X174115Y130211D02*
X174165Y130175D01*
X174238Y130157*
X174238Y130157D02*
X174263Y130157D01*
X174263Y130157D02*
X174337Y130175D01*
X174386Y130211*
X174386Y130211D02*
X174411Y130264D01*
X174411Y130264D02*
X174411Y130282D01*
X174411Y130282D02*
X174386Y130336D01*
X174386Y130336D02*
X174337Y130372D01*
X174263Y130390*
X183073Y132548D02*
X183091Y132498D01*
X183091Y132498D02*
X183127Y132449D01*
X183127Y132449D02*
X183163Y132425D01*
X183235Y132425*
X183270Y132449*
X183270Y132449D02*
X183306Y132498D01*
X183306Y132498D02*
X183324Y132548D01*
X183342Y132622*
X183342Y132745*
X183324Y132818*
X183324Y132818D02*
X183306Y132868D01*
X183306Y132868D02*
X183270Y132917D01*
X183270Y132917D02*
X183235Y132941D01*
X183235Y132941D02*
X183163Y132941D01*
X183163Y132941D02*
X183127Y132917D01*
X183127Y132917D02*
X183091Y132868D01*
X183091Y132868D02*
X183073Y132818D01*
X182662Y132425D02*
X182841Y132941D01*
X182912Y132425D02*
X182662Y132425D01*
X167203Y127929D02*
X166687Y127929D01*
X167203Y127929D02*
X167203Y127804D01*
X167203Y127804D02*
X167179Y127750D01*
X167130Y127714*
X167130Y127714D02*
X167080Y127696D01*
X167080Y127696D02*
X167007Y127678D01*
X167007Y127678D02*
X166884Y127678D01*
X166884Y127678D02*
X166810Y127696D01*
X166810Y127696D02*
X166761Y127714D01*
X166761Y127714D02*
X166711Y127750D01*
X166711Y127750D02*
X166687Y127804D01*
X166687Y127929*
X167105Y127517D02*
X167130Y127482D01*
X167203Y127428*
X167203Y127428D02*
X166687Y127428D01*
X172833Y136062D02*
X172833Y136579D01*
X172833Y136062D02*
X172708Y136062D01*
X172708Y136062D02*
X172654Y136086D01*
X172654Y136086D02*
X172619Y136136D01*
X172601Y136185*
X172583Y136259*
X172583Y136382*
X172601Y136456*
X172619Y136505*
X172654Y136554*
X172654Y136554D02*
X172708Y136579D01*
X172708Y136579D02*
X172833Y136579D01*
X172404Y136185D02*
X172404Y136160D01*
X172404Y136160D02*
X172386Y136111D01*
X172386Y136111D02*
X172368Y136086D01*
X172368Y136086D02*
X172332Y136062D01*
X172332Y136062D02*
X172261Y136062D01*
X172225Y136086*
X172225Y136086D02*
X172207Y136111D01*
X172207Y136111D02*
X172189Y136160D01*
X172189Y136160D02*
X172189Y136209D01*
X172189Y136209D02*
X172207Y136259D01*
X172207Y136259D02*
X172243Y136333D01*
X172422Y136579*
X172171Y136579*
X178279Y126533D02*
X178279Y126016D01*
X178279Y126533D02*
X178405Y126533D01*
X178405Y126533D02*
X178458Y126509D01*
X178458Y126509D02*
X178494Y126459D01*
X178494Y126459D02*
X178512Y126410D01*
X178512Y126410D02*
X178530Y126336D01*
X178530Y126336D02*
X178530Y126213D01*
X178530Y126213D02*
X178512Y126139D01*
X178512Y126139D02*
X178494Y126090D01*
X178494Y126090D02*
X178458Y126041D01*
X178458Y126041D02*
X178405Y126016D01*
X178405Y126016D02*
X178279Y126016D01*
X178727Y126533D02*
X178924Y126533D01*
X178924Y126533D02*
X178816Y126336D01*
X178816Y126336D02*
X178870Y126336D01*
X178870Y126336D02*
X178906Y126312D01*
X178924Y126287*
X178924Y126287D02*
X178942Y126213D01*
X178942Y126213D02*
X178942Y126164D01*
X178924Y126090*
X178924Y126090D02*
X178888Y126041D01*
X178834Y126016*
X178834Y126016D02*
X178781Y126016D01*
X178781Y126016D02*
X178727Y126041D01*
X178709Y126066*
X178691Y126115*
X183248Y126080D02*
X183248Y126596D01*
X183248Y126080D02*
X183123Y126080D01*
X183069Y126104*
X183069Y126104D02*
X183033Y126153D01*
X183033Y126153D02*
X183016Y126203D01*
X182998Y126276*
X182998Y126276D02*
X182998Y126399D01*
X182998Y126399D02*
X183016Y126473D01*
X183016Y126473D02*
X183033Y126523D01*
X183033Y126523D02*
X183069Y126572D01*
X183069Y126572D02*
X183123Y126596D01*
X183123Y126596D02*
X183248Y126596D01*
X182658Y126080D02*
X182837Y126424D01*
X182837Y126424D02*
X182568Y126424D01*
X182658Y126080D02*
X182658Y126596D01*
X170367Y126865D02*
X170367Y126348D01*
X170367Y126348D02*
X170582Y126348D01*
X170743Y126767D02*
X170779Y126791D01*
X170779Y126791D02*
X170833Y126865D01*
X170833Y126865D02*
X170833Y126348D01*
X174219Y137284D02*
X174219Y136768D01*
X174219Y137284D02*
X174380Y137284D01*
X174380Y137284D02*
X174434Y137260D01*
X174452Y137235*
X174452Y137235D02*
X174469Y137186D01*
X174469Y137186D02*
X174469Y137137D01*
X174469Y137137D02*
X174452Y137087D01*
X174452Y137087D02*
X174434Y137063D01*
X174380Y137038*
X174380Y137038D02*
X174219Y137038D01*
X174344Y137038D02*
X174469Y136768D01*
X174630Y137186D02*
X174666Y137211D01*
X174666Y137211D02*
X174720Y137284D01*
X174720Y137284D02*
X174720Y136768D01*
X176719Y124068D02*
X176719Y123551D01*
X176719Y124068D02*
X176880Y124068D01*
X176880Y124068D02*
X176934Y124044D01*
X176952Y124019*
X176970Y123970*
X176970Y123921*
X176952Y123871*
X176952Y123871D02*
X176934Y123847D01*
X176880Y123822*
X176880Y123822D02*
X176719Y123822D01*
X176844Y123822D02*
X176970Y123551D01*
X177131Y123970D02*
X177166Y123994D01*
X177166Y123994D02*
X177220Y124068D01*
X177220Y124068D02*
X177220Y123551D01*
X177489Y124068D02*
X177435Y124044D01*
X177399Y123970*
X177399Y123970D02*
X177381Y123847D01*
X177381Y123847D02*
X177381Y123773D01*
X177381Y123773D02*
X177399Y123650D01*
X177399Y123650D02*
X177435Y123576D01*
X177435Y123576D02*
X177489Y123551D01*
X177489Y123551D02*
X177524Y123551D01*
X177524Y123551D02*
X177578Y123576D01*
X177578Y123576D02*
X177614Y123650D01*
X177632Y123773*
X177632Y123847*
X177614Y123970*
X177578Y124044*
X177578Y124044D02*
X177524Y124068D01*
X177524Y124068D02*
X177489Y124068D01*
X167783Y136573D02*
X167783Y136057D01*
X167783Y136573D02*
X167944Y136573D01*
X167944Y136573D02*
X167998Y136549D01*
X168016Y136524*
X168016Y136524D02*
X168034Y136475D01*
X168034Y136426*
X168016Y136377*
X167998Y136352*
X167944Y136327*
X167944Y136327D02*
X167783Y136327D01*
X167909Y136327D02*
X168034Y136057D01*
X168213Y136450D02*
X168213Y136475D01*
X168231Y136524*
X168231Y136524D02*
X168249Y136549D01*
X168284Y136573*
X168284Y136573D02*
X168356Y136573D01*
X168356Y136573D02*
X168392Y136549D01*
X168410Y136524*
X168410Y136524D02*
X168428Y136475D01*
X168428Y136426*
X168410Y136377*
X168374Y136303*
X168195Y136057*
X168445Y136057*
X179280Y127161D02*
X179797Y127161D01*
X179280Y127161D02*
X179280Y127322D01*
X179280Y127322D02*
X179305Y127376D01*
X179305Y127376D02*
X179329Y127394D01*
X179329Y127394D02*
X179379Y127412D01*
X179428Y127412*
X179477Y127394*
X179502Y127376*
X179502Y127376D02*
X179526Y127322D01*
X179526Y127322D02*
X179526Y127161D01*
X179526Y127287D02*
X179797Y127412D01*
X179280Y127609D02*
X179280Y127806D01*
X179280Y127806D02*
X179477Y127698D01*
X179477Y127698D02*
X179477Y127752D01*
X179502Y127788*
X179526Y127806*
X179526Y127806D02*
X179600Y127823D01*
X179600Y127823D02*
X179649Y127823D01*
X179649Y127823D02*
X179723Y127806D01*
X179772Y127770*
X179772Y127770D02*
X179797Y127716D01*
X179797Y127716D02*
X179797Y127662D01*
X179797Y127662D02*
X179772Y127609D01*
X179772Y127609D02*
X179748Y127591D01*
X179698Y127573*
X176754Y131069D02*
X176754Y130552D01*
X176754Y131069D02*
X176915Y131069D01*
X176915Y131069D02*
X176969Y131044D01*
X176969Y131044D02*
X176987Y131020D01*
X177005Y130970*
X177005Y130970D02*
X177005Y130921D01*
X177005Y130921D02*
X176987Y130872D01*
X176969Y130847*
X176969Y130847D02*
X176915Y130823D01*
X176915Y130823D02*
X176754Y130823D01*
X176880Y130823D02*
X177005Y130552D01*
X177345Y131069D02*
X177166Y130724D01*
X177166Y130724D02*
X177434Y130724D01*
X177345Y131069D02*
X177345Y130552D01*
X180304Y132744D02*
X179787Y132744D01*
X180304Y132744D02*
X180304Y132583D01*
X180304Y132583D02*
X180279Y132529D01*
X180279Y132529D02*
X180255Y132511D01*
X180255Y132511D02*
X180206Y132493D01*
X180206Y132493D02*
X180156Y132493D01*
X180156Y132493D02*
X180107Y132511D01*
X180107Y132511D02*
X180083Y132529D01*
X180083Y132529D02*
X180058Y132583D01*
X180058Y132744*
X180058Y132619D02*
X179787Y132493D01*
X180304Y132100D02*
X180304Y132279D01*
X180304Y132279D02*
X180083Y132297D01*
X180107Y132279*
X180107Y132279D02*
X180132Y132225D01*
X180132Y132171*
X180132Y132171D02*
X180107Y132118D01*
X180107Y132118D02*
X180058Y132082D01*
X179984Y132064*
X179984Y132064D02*
X179935Y132082D01*
X179861Y132100*
X179861Y132100D02*
X179812Y132136D01*
X179787Y132189*
X179787Y132189D02*
X179787Y132243D01*
X179787Y132243D02*
X179812Y132297D01*
X179837Y132314*
X179837Y132314D02*
X179886Y132332D01*
X174072Y125827D02*
X174588Y125827D01*
X174072Y125827D02*
X174072Y125988D01*
X174072Y125988D02*
X174096Y126042D01*
X174096Y126042D02*
X174121Y126060D01*
X174170Y126078*
X174170Y126078D02*
X174219Y126078D01*
X174219Y126078D02*
X174269Y126060D01*
X174293Y126042*
X174293Y126042D02*
X174318Y125988D01*
X174318Y125988D02*
X174318Y125827D01*
X174318Y125953D02*
X174588Y126078D01*
X174145Y126454D02*
X174096Y126436D01*
X174096Y126436D02*
X174072Y126382D01*
X174072Y126382D02*
X174072Y126346D01*
X174072Y126346D02*
X174096Y126293D01*
X174096Y126293D02*
X174170Y126257D01*
X174170Y126257D02*
X174293Y126239D01*
X174293Y126239D02*
X174416Y126239D01*
X174416Y126239D02*
X174515Y126257D01*
X174564Y126293*
X174588Y126346*
X174588Y126346D02*
X174588Y126364D01*
X174588Y126364D02*
X174564Y126418D01*
X174515Y126454*
X174441Y126472*
X174416Y126472*
X174416Y126472D02*
X174342Y126454D01*
X174342Y126454D02*
X174293Y126418D01*
X174293Y126418D02*
X174269Y126364D01*
X174269Y126364D02*
X174269Y126346D01*
X174269Y126346D02*
X174293Y126293D01*
X174293Y126293D02*
X174342Y126257D01*
X174342Y126257D02*
X174416Y126239D01*
X176570Y137264D02*
X176570Y136748D01*
X176570Y137264D02*
X176731Y137264D01*
X176731Y137264D02*
X176785Y137240D01*
X176785Y137240D02*
X176803Y137215D01*
X176803Y137215D02*
X176821Y137166D01*
X176821Y137117*
X176803Y137068*
X176785Y137043*
X176785Y137043D02*
X176731Y137018D01*
X176731Y137018D02*
X176570Y137018D01*
X176696Y137018D02*
X176821Y136748D01*
X177233Y137264D02*
X177054Y136748D01*
X176982Y137264D02*
X177233Y137264D01*
X174945Y126612D02*
X174945Y126096D01*
X174945Y126612D02*
X175107Y126612D01*
X175107Y126612D02*
X175160Y126588D01*
X175160Y126588D02*
X175178Y126563D01*
X175178Y126563D02*
X175196Y126514D01*
X175196Y126465*
X175178Y126415*
X175178Y126415D02*
X175160Y126391D01*
X175160Y126391D02*
X175107Y126366D01*
X175107Y126366D02*
X174945Y126366D01*
X175071Y126366D02*
X175196Y126096D01*
X175447Y126612D02*
X175393Y126588D01*
X175375Y126538*
X175375Y126538D02*
X175375Y126489D01*
X175375Y126489D02*
X175393Y126440D01*
X175429Y126415*
X175429Y126415D02*
X175500Y126391D01*
X175500Y126391D02*
X175554Y126366D01*
X175554Y126366D02*
X175590Y126317D01*
X175608Y126268*
X175608Y126194*
X175590Y126145*
X175572Y126120*
X175572Y126120D02*
X175518Y126096D01*
X175518Y126096D02*
X175447Y126096D01*
X175393Y126120*
X175393Y126120D02*
X175375Y126145D01*
X175357Y126194*
X175357Y126194D02*
X175357Y126268D01*
X175357Y126268D02*
X175375Y126317D01*
X175411Y126366*
X175411Y126366D02*
X175464Y126391D01*
X175464Y126391D02*
X175536Y126415D01*
X175536Y126415D02*
X175572Y126440D01*
X175590Y126489*
X175590Y126489D02*
X175590Y126538D01*
X175590Y126538D02*
X175572Y126588D01*
X175518Y126612*
X175518Y126612D02*
X175447Y126612D01*
X182148Y129311D02*
X181631Y129311D01*
X182148Y129311D02*
X182148Y129150D01*
X182148Y129150D02*
X182123Y129097D01*
X182123Y129097D02*
X182099Y129079D01*
X182049Y129061*
X182049Y129061D02*
X182000Y129061D01*
X182000Y129061D02*
X181951Y129079D01*
X181926Y129097*
X181926Y129097D02*
X181902Y129150D01*
X181902Y129150D02*
X181902Y129311D01*
X181902Y129186D02*
X181631Y129061D01*
X181976Y128667D02*
X181902Y128685D01*
X181902Y128685D02*
X181852Y128721D01*
X181852Y128721D02*
X181828Y128775D01*
X181828Y128793*
X181852Y128846*
X181852Y128846D02*
X181902Y128882D01*
X181976Y128900*
X182000Y128900*
X182000Y128900D02*
X182074Y128882D01*
X182123Y128846*
X182123Y128846D02*
X182148Y128793D01*
X182148Y128775*
X182123Y128721*
X182123Y128721D02*
X182074Y128685D01*
X182074Y128685D02*
X181976Y128667D01*
X181976Y128667D02*
X181852Y128667D01*
X181852Y128667D02*
X181729Y128685D01*
X181729Y128685D02*
X181656Y128721D01*
X181631Y128775*
X181631Y128810*
X181631Y128810D02*
X181656Y128864D01*
X181656Y128864D02*
X181705Y128882D01*
X169042Y132850D02*
X168673Y132850D01*
X168599Y132832*
X168550Y132796*
X168525Y132742*
X168525Y132742D02*
X168525Y132707D01*
X168525Y132707D02*
X168550Y132653D01*
X168599Y132617*
X168599Y132617D02*
X168673Y132599D01*
X168673Y132599D02*
X169042Y132599D01*
X168943Y132438D02*
X168968Y132402D01*
X168968Y132402D02*
X169042Y132349D01*
X168525Y132349*
X174473Y132174D02*
X174842Y132174D01*
X174842Y132174D02*
X174916Y132192D01*
X174965Y132227*
X174965Y132227D02*
X174990Y132281D01*
X174990Y132281D02*
X174990Y132317D01*
X174965Y132371*
X174965Y132371D02*
X174916Y132406D01*
X174916Y132406D02*
X174842Y132424D01*
X174842Y132424D02*
X174473Y132424D01*
X174596Y132603D02*
X174571Y132603D01*
X174571Y132603D02*
X174522Y132621D01*
X174522Y132621D02*
X174498Y132639D01*
X174498Y132639D02*
X174473Y132675D01*
X174473Y132746*
X174473Y132746D02*
X174498Y132782D01*
X174498Y132782D02*
X174522Y132800D01*
X174522Y132800D02*
X174571Y132818D01*
X174571Y132818D02*
X174621Y132818D01*
X174670Y132800*
X174670Y132800D02*
X174744Y132764D01*
X174744Y132764D02*
X174990Y132585D01*
X174990Y132585D02*
X174990Y132836D01*
X182783Y130983D02*
X182414Y130983D01*
X182414Y130983D02*
X182341Y130965D01*
X182341Y130965D02*
X182291Y130930D01*
X182291Y130930D02*
X182267Y130876D01*
X182267Y130840*
X182267Y130840D02*
X182291Y130786D01*
X182291Y130786D02*
X182341Y130751D01*
X182414Y130733*
X182414Y130733D02*
X182783Y130733D01*
X182783Y130536D02*
X182783Y130339D01*
X182783Y130339D02*
X182587Y130446D01*
X182587Y130446D02*
X182587Y130393D01*
X182562Y130357*
X182537Y130339*
X182537Y130339D02*
X182464Y130321D01*
X182464Y130321D02*
X182414Y130321D01*
X182414Y130321D02*
X182341Y130339D01*
X182291Y130375*
X182291Y130375D02*
X182267Y130428D01*
X182267Y130428D02*
X182267Y130482D01*
X182267Y130482D02*
X182291Y130536D01*
X182291Y130536D02*
X182316Y130554D01*
X182365Y130572*
X176639Y128748D02*
X176639Y128378D01*
X176639Y128378D02*
X176657Y128305D01*
X176657Y128305D02*
X176693Y128255D01*
X176693Y128255D02*
X176747Y128231D01*
X176782Y128231*
X176782Y128231D02*
X176836Y128255D01*
X176836Y128255D02*
X176872Y128305D01*
X176890Y128378*
X176890Y128378D02*
X176890Y128748D01*
X177230Y128748D02*
X177051Y128403D01*
X177051Y128403D02*
X177319Y128403D01*
X177230Y128748D02*
X177230Y128231D01*
X159948Y139330D02*
G75*
G03X157480Y136862I000415J-002882D01*
G01X157480Y136862D02*
X157480Y119742D01*
X157480Y119742D02*
G03X159093Y118129I001613J000000D01*
G01X159093Y118129D02*
X159194Y118129D01*
X159194Y118129D02*
G03X160787Y119723I000000J001594D01*
G01X160787Y120492*
X163405Y120492*
X163405Y120492D02*
X163405Y119764D01*
X163405Y119764D02*
G03X165040Y118129I001635J000000D01*
G01X165040Y118129D02*
X165073Y118129D01*
X165073Y118129D02*
G03X166712Y119769I-000000J001640D01*
G01X166712Y119769D02*
X166712Y120492D01*
X166712Y120492D02*
X179783Y120492D01*
X179783Y119767*
G03X181421Y118129I001638J000000*
G01X181421Y118129D02*
X181431Y118129D01*
X181431Y118129D02*
G03X183070Y119769I000000J001640D01*
G01X183070Y119769D02*
X183070Y120492D01*
X183070Y120492D02*
X185708Y120492D01*
X185708Y120492D02*
X185708Y119776D01*
X185708Y119776D02*
G03X187355Y118129I001647J000000D01*
G01X187355Y118129D02*
X187386Y118129D01*
X187386Y118129D02*
G03X188996Y119739I000000J001610D01*
G01X188996Y136417*
G03X186082Y139330I-002913J000000*
G01X186082Y139330D02*
X159948Y139330D01*
G74*
X000000Y000000D02*
M02*
