*
*
G04 PADS VX.2.4 Build Number: 11282995 generated Gerber (RS-274-X) file*
G04 PC Version=2.1*
*
%IN "adj_power_supply.pcb"*%
*
%MOIN*%
*
%FSDAX24Y24*%
*
*
*
*
G04 PC Standard Apertures*
*
*
G04 Thermal Relief Aperture macro.*
%AMTER*
1,1,$1,0,0*
1,0,$1-$2,0,0*
21,0,$3,$4,0,0,45*
21,0,$3,$4,0,0,135*
%
*
*
G04 Annular Aperture macro.*
%AMANN*
1,1,$1,0,0*
1,0,$2,0,0*
%
*
*
G04 Odd Aperture macro.*
%AMODD*
1,1,$1,0,0*
1,0,$1-0.005,0,0*
%
*
*
G04 PC Custom Aperture Macros*
*
*
*
*
*
*
G04 PC Aperture Table*
*
%ADD010C,0.00591*%
%ADD036C,0.01*%
*
*
*
*
G04 PC Circuitry*
G04 Layer Name adj_power_supply.pcb - circuitry*
%LPD*%
*
*
G04 PC Custom Flashes*
G04 Layer Name adj_power_supply.pcb - flashes*
%LPD*%
*
*
G04 PC Circuitry*
G04 Layer Name adj_power_supply.pcb - circuitry*
%LPD*%
*
G54D10*
G54D36*
G01X188720Y124065D02*
X188648Y124114D01*
X188648Y124114D02*
X188541Y124261D01*
X188541Y124261D02*
X188541Y123228D01*
X158146Y124261D02*
X158503Y123572D01*
X158503Y123572D02*
X157967Y123572D01*
X158146Y124261D02*
X158146Y123228D01*
X184346Y133437D02*
X184704Y132145D01*
X184346Y133437D02*
X183988Y132145D01*
X184570Y132576D02*
X184123Y132576D01*
X183586Y133437D02*
X183586Y132145D01*
X183586Y133437D02*
X183273Y133437D01*
X183273Y133437D02*
X183138Y133376D01*
X183138Y133376D02*
X183049Y133253D01*
X183004Y133129*
X183004Y133129D02*
X182959Y132945D01*
X182959Y132945D02*
X182959Y132637D01*
X182959Y132637D02*
X183004Y132453D01*
X183004Y132453D02*
X183049Y132330D01*
X183138Y132207*
X183138Y132207D02*
X183273Y132145D01*
X183273Y132145D02*
X183586Y132145D01*
X182109Y133437D02*
X182109Y132453D01*
X182109Y132453D02*
X182154Y132268D01*
X182154Y132268D02*
X182199Y132207D01*
X182288Y132145*
X182288Y132145D02*
X182378Y132145D01*
X182378Y132145D02*
X182467Y132207D01*
X182467Y132207D02*
X182512Y132268D01*
X182512Y132268D02*
X182557Y132453D01*
X182557Y132576*
X181707Y133437D02*
X181707Y132514D01*
X181707Y132514D02*
X181662Y132330D01*
X181573Y132207*
X181438Y132145*
X181438Y132145D02*
X181349Y132145D01*
X181349Y132145D02*
X181215Y132207D01*
X181125Y132330*
X181125Y132330D02*
X181080Y132514D01*
X181080Y132514D02*
X181080Y133437D01*
X180051Y133253D02*
X180141Y133376D01*
X180275Y133437*
X180275Y133437D02*
X180454Y133437D01*
X180454Y133437D02*
X180588Y133376D01*
X180588Y133376D02*
X180678Y133253D01*
X180678Y133129*
X180678Y133129D02*
X180633Y133006D01*
X180633Y133006D02*
X180588Y132945D01*
X180588Y132945D02*
X180499Y132883D01*
X180499Y132883D02*
X180230Y132760D01*
X180230Y132760D02*
X180141Y132699D01*
X180096Y132637*
X180096Y132637D02*
X180051Y132514D01*
X180051Y132514D02*
X180051Y132330D01*
X180051Y132330D02*
X180141Y132207D01*
X180275Y132145*
X180275Y132145D02*
X180454Y132145D01*
X180454Y132145D02*
X180588Y132207D01*
X180588Y132207D02*
X180678Y132330D01*
X179336Y133437D02*
X179336Y132145D01*
X179649Y133437D02*
X179022Y133437D01*
X178262Y133437D02*
X178620Y132145D01*
X178262Y133437D02*
X177904Y132145D01*
X178486Y132576D02*
X178038Y132576D01*
X177501Y133437D02*
X177501Y132145D01*
X177501Y133437D02*
X177099Y133437D01*
X177099Y133437D02*
X176964Y133376D01*
X176964Y133376D02*
X176920Y133314D01*
X176875Y133191*
X176875Y133068*
X176920Y132945*
X176964Y132883*
X176964Y132883D02*
X177099Y132822D01*
X177501Y132822D02*
X177099Y132822D01*
X176964Y132760*
X176964Y132760D02*
X176920Y132699D01*
X176875Y132576*
X176875Y132391*
X176875Y132391D02*
X176920Y132268D01*
X176920Y132268D02*
X176964Y132207D01*
X176964Y132207D02*
X177099Y132145D01*
X177099Y132145D02*
X177501Y132145D01*
X176472Y133437D02*
X176472Y132145D01*
X176472Y132145D02*
X175935Y132145D01*
X175533Y133437D02*
X175533Y132145D01*
X175533Y133437D02*
X174951Y133437D01*
X175533Y132822D02*
X175175Y132822D01*
X175533Y132145D02*
X174951Y132145D01*
X173520Y133437D02*
X173520Y132145D01*
X173520Y133437D02*
X173117Y133437D01*
X173117Y133437D02*
X172983Y133376D01*
X172938Y133314*
X172893Y133191*
X172893Y133191D02*
X172893Y133006D01*
X172893Y133006D02*
X172938Y132883D01*
X172938Y132883D02*
X172983Y132822D01*
X173117Y132760*
X173117Y132760D02*
X173520Y132760D01*
X172222Y133437D02*
X172312Y133376D01*
X172401Y133253*
X172401Y133253D02*
X172446Y133129D01*
X172446Y133129D02*
X172491Y132945D01*
X172491Y132637*
X172491Y132637D02*
X172446Y132453D01*
X172401Y132330*
X172401Y132330D02*
X172312Y132207D01*
X172222Y132145*
X172222Y132145D02*
X172043Y132145D01*
X172043Y132145D02*
X171954Y132207D01*
X171864Y132330*
X171864Y132330D02*
X171820Y132453D01*
X171775Y132637*
X171775Y132637D02*
X171775Y132945D01*
X171820Y133129*
X171820Y133129D02*
X171864Y133253D01*
X171864Y133253D02*
X171954Y133376D01*
X172043Y133437*
X172043Y133437D02*
X172222Y133437D01*
X171372Y133437D02*
X171148Y132145D01*
X170925Y133437D02*
X171148Y132145D01*
X170925Y133437D02*
X170701Y132145D01*
X170477Y133437D02*
X170701Y132145D01*
X170075Y133437D02*
X170075Y132145D01*
X170075Y133437D02*
X169493Y133437D01*
X170075Y132822D02*
X169717Y132822D01*
X170075Y132145D02*
X169493Y132145D01*
X169090Y133437D02*
X169090Y132145D01*
X169090Y133437D02*
X168688Y133437D01*
X168688Y133437D02*
X168554Y133376D01*
X168509Y133314*
X168464Y133191*
X168464Y133191D02*
X168464Y133068D01*
X168464Y133068D02*
X168509Y132945D01*
X168554Y132883*
X168554Y132883D02*
X168688Y132822D01*
X169090Y132822*
X168777Y132822D02*
X168464Y132145D01*
X166406Y133253D02*
X166496Y133376D01*
X166630Y133437*
X166630Y133437D02*
X166809Y133437D01*
X166809Y133437D02*
X166943Y133376D01*
X167032Y133253*
X167032Y133253D02*
X167032Y133129D01*
X167032Y133129D02*
X166988Y133006D01*
X166988Y133006D02*
X166943Y132945D01*
X166854Y132883*
X166854Y132883D02*
X166585Y132760D01*
X166585Y132760D02*
X166496Y132699D01*
X166451Y132637*
X166451Y132637D02*
X166406Y132514D01*
X166406Y132514D02*
X166406Y132330D01*
X166406Y132330D02*
X166496Y132207D01*
X166630Y132145*
X166630Y132145D02*
X166809Y132145D01*
X166809Y132145D02*
X166943Y132207D01*
X167032Y132330*
X166003Y133437D02*
X166003Y132514D01*
X166003Y132514D02*
X165959Y132330D01*
X165869Y132207*
X165869Y132207D02*
X165735Y132145D01*
X165735Y132145D02*
X165646Y132145D01*
X165646Y132145D02*
X165511Y132207D01*
X165511Y132207D02*
X165422Y132330D01*
X165377Y132514*
X165377Y132514D02*
X165377Y133437D01*
X164974Y133437D02*
X164974Y132145D01*
X164974Y133437D02*
X164572Y133437D01*
X164572Y133437D02*
X164438Y133376D01*
X164393Y133314*
X164348Y133191*
X164348Y133191D02*
X164348Y133006D01*
X164348Y133006D02*
X164393Y132883D01*
X164393Y132883D02*
X164438Y132822D01*
X164572Y132760*
X164572Y132760D02*
X164974Y132760D01*
X163946Y133437D02*
X163946Y132145D01*
X163946Y133437D02*
X163543Y133437D01*
X163543Y133437D02*
X163409Y133376D01*
X163364Y133314*
X163319Y133191*
X163319Y133191D02*
X163319Y133006D01*
X163319Y133006D02*
X163364Y132883D01*
X163364Y132883D02*
X163409Y132822D01*
X163543Y132760*
X163543Y132760D02*
X163946Y132760D01*
X162917Y133437D02*
X162917Y132145D01*
X162917Y132145D02*
X162380Y132145D01*
X161977Y133437D02*
X161619Y132822D01*
X161619Y132822D02*
X161619Y132145D01*
X161261Y133437D02*
X161619Y132822D01*
X159948Y139330D02*
G75*
G03X157480Y136862I000415J-002882D01*
G01X157480Y136862D02*
X157480Y119742D01*
X157480Y119742D02*
G03X159093Y118129I001613J000000D01*
G01X159093Y118129D02*
X159194Y118129D01*
X159194Y118129D02*
G03X160787Y119723I000000J001594D01*
G01X160787Y120492*
X163405Y120492*
X163405Y120492D02*
X163405Y119764D01*
X163405Y119764D02*
G03X165040Y118129I001635J000000D01*
G01X165040Y118129D02*
X165073Y118129D01*
X165073Y118129D02*
G03X166712Y119769I-000000J001640D01*
G01X166712Y119769D02*
X166712Y120492D01*
X166712Y120492D02*
X179783Y120492D01*
X179783Y119767*
G03X181421Y118129I001638J000000*
G01X181421Y118129D02*
X181431Y118129D01*
X181431Y118129D02*
G03X183070Y119769I000000J001640D01*
G01X183070Y119769D02*
X183070Y120492D01*
X183070Y120492D02*
X185708Y120492D01*
X185708Y120492D02*
X185708Y119776D01*
X185708Y119776D02*
G03X187355Y118129I001647J000000D01*
G01X187355Y118129D02*
X187386Y118129D01*
X187386Y118129D02*
G03X188996Y119739I000000J001610D01*
G01X188996Y136417*
G03X186082Y139330I-002913J000000*
G01X186082Y139330D02*
X159948Y139330D01*
X188222Y122854D02*
G03X188222Y122854I-000387J0D01*
G01X188140Y122854D02*
G03X188140Y122854I-000305J0D01*
G01X188051Y122854D02*
G03X188051Y122854I-000216J0D01*
G74*
G01X000000Y000000D02*
M02*
