M48
;FILE_FORMAT=2:4
INCH
FMAT,2
ICI,OFF
;TYPE=PLATED
T1C.00787
T2C.01575
T3C.03
T4C.0315
T5C.05118
T6C.12598
%
M72
G90
G93X0Y0
T1C.00787F000S000
X177230Y134110
T2C.01575F095S300
X175730Y125860
X175730Y131860
X176480Y131610
X177230Y128860
X180230Y128360
X179980Y127110
X177480Y125610
X180230Y125610
X182730Y131360
T3C.03F197S550
X175106Y135555
X175106Y136555
X175106Y137555
X177480Y137535
X177480Y136535
X177480Y135535
T4C.0315F197S550
X158980Y122860
X158980Y124610
X158980Y126360
X158980Y128110
X158980Y129860
X160480Y130860
X158730Y132860
X160480Y132860
X158730Y134610
X160480Y134610
X162730Y137860
X162730Y136360
X162730Y134610
X162730Y132860
X162730Y130860
X161230Y125360
X162480Y125360
X162480Y123610
X161230Y123610
X163730Y123610
X165230Y123610
X168230Y123610
X163730Y125360
X166730Y130110
X164980Y130860
X165730Y134860
X166980Y134860
X166980Y137110
X168480Y137110
X165230Y137860
X169730Y138110
X169730Y129110
X172730Y128360
X171480Y128360
X169730Y127610
X171480Y127360
X171480Y126360
X169730Y126110
X169730Y123610
X182730Y128610
X183230Y133860
X181980Y133860
X181980Y135360
X182730Y138360
X183980Y138360
X185230Y138360
X185230Y136860
X185230Y135360
X185230Y133860
X185230Y132110
X183980Y128610
X183980Y127360
X183980Y125860
X187480Y124360
X187480Y126860
X187480Y129360
X187480Y131860
X187480Y134360
T5C.05118F107S550
X164697Y136114
X165717Y136114
T6C.12598F035S794
X173228Y122047
X159449Y137441
X187008Y137441
M30
